<svg width="9" height="13" viewBox="0 0 9 13" fill="none" xmlns="http://www.w3.org/2000/svg"><path fill-rule="evenodd" clip-rule="evenodd" d="M3.62119 0.036368C3.61323 0.0579098 3.6207 0.185103 3.63778 0.319003C3.70539 0.84848 3.6283 1.42897 3.42748 1.90243C3.18999 2.46236 2.93408 2.81712 2.04392 3.82036C1.47857 4.45752 1.31188 4.65846 1.07636 4.98677C0.613671 5.63178 0.329529 6.21976 0.159264 6.88461C0.0233071 7.41544 0.000149334 7.62191 2.30029e-06 8.30401C-0.000120228 8.8832 0.00443786 8.94852 0.0656038 9.2454C0.463721 11.1778 1.91416 12.6283 3.75977 12.9398C6.24981 13.3601 8.59948 11.5327 8.96917 8.88828C9.01989 8.52543 9.006 7.73501 8.94238 7.3641C8.8013 6.54149 8.5312 5.82718 8.12449 5.20092C7.87561 4.81772 7.7915 4.79912 7.80079 5.12936C7.81836 5.75265 7.45276 6.24313 6.89058 6.35051C6.68192 6.39037 6.45401 6.35384 6.24464 6.247C6.05849 6.15201 5.82895 5.90667 5.72921 5.69608C5.66229 5.55481 5.65908 5.5321 5.66131 5.21754C5.66317 4.95555 5.67978 4.80339 5.74161 4.48138C5.83873 3.97573 5.8562 3.72279 5.81978 3.35041C5.76286 2.7686 5.6431 2.34251 5.39848 1.85162C5.06489 1.1821 4.51876 0.558224 3.86708 0.102162C3.70706 -0.00981489 3.6445 -0.0265555 3.62119 0.036368ZM3.96716 6.43955C3.98878 6.46198 4.0014 6.49915 3.99515 6.52211C3.96579 6.63035 3.95496 7.30326 3.97853 7.55546C4.0299 8.1048 4.15218 8.40753 4.44524 8.71089C4.75026 9.02663 5.08342 9.15784 5.52417 9.13584C5.86958 9.11861 6.13716 9.00743 6.43789 8.75621C6.52547 8.68305 6.575 8.71176 6.63136 8.86839C6.76001 9.22594 6.79035 9.78476 6.70201 10.1703C6.50278 11.0399 5.8511 11.7268 5.02181 11.9413C4.72073 12.0191 4.22915 12.0189 3.94886 11.9407C3.12767 11.7116 2.50638 11.061 2.2988 10.2126C2.25086 10.0167 2.24043 9.90967 2.24043 9.61349C2.24043 8.72464 2.49073 8.04157 3.10758 7.24709C3.30573 6.99189 3.85975 6.39764 3.89894 6.3983C3.91482 6.39855 3.94552 6.41712 3.96716 6.43955Z" fill="#64FF8F"></path></svg>