<svg width="12" height="13" viewBox="0 0 12 13" fill="none" xmlns="http://www.w3.org/2000/svg"><path fill-rule="evenodd" clip-rule="evenodd" d="M3.69227 0.0281222C4.12038 0.128917 4.50361 0.4811 4.6634 0.920623C4.71003 1.04889 4.71839 1.12119 4.71758 1.39016C4.71674 1.67326 4.70947 1.72693 4.65116 1.88001C4.53936 2.17347 4.37038 2.38551 4.10552 2.56459C3.60806 2.90098 2.90221 2.83363 2.47427 2.40894C2.20049 2.1372 2.07488 1.84837 2.05824 1.45222C2.04161 1.05596 2.14269 0.7464 2.38325 0.456937C2.5022 0.313796 2.7663 0.135809 2.96189 0.0669343C3.1638 -0.00415338 3.48309 -0.0211178 3.69227 0.0281222ZM8.16036 2.27877C8.28619 2.30992 8.49144 2.43864 8.57309 2.53756C8.61553 2.58901 8.89862 3.09809 9.20216 3.66886C9.62639 4.46656 9.761 4.74145 9.78399 4.85708C9.88039 5.34116 9.56803 5.77557 9.06598 5.85566C8.94079 5.87563 8.69794 5.81397 8.5684 5.72933C8.40669 5.62368 8.31991 5.48972 7.90083 4.699L7.4954 3.93403L6.72972 3.93377L5.96403 3.93355L6.81247 5.46594C7.27914 6.30874 7.80464 7.25839 7.98027 7.57621L8.29959 8.15409L9.82638 8.16119L11.3532 8.16829L11.476 8.23126C11.6328 8.31163 11.7815 8.46556 11.8582 8.62676C11.9093 8.73432 11.9183 8.78948 11.918 8.99489C11.9176 9.20726 11.9096 9.25225 11.8518 9.36643C11.7656 9.53645 11.5698 9.7167 11.4077 9.7752C11.2882 9.81833 11.1571 9.82149 9.48572 9.82149C7.80353 9.82149 7.68386 9.81856 7.56145 9.77441C7.33625 9.69317 7.20314 9.53373 6.86837 8.94402C6.70556 8.65725 6.56179 8.42263 6.54889 8.42263C6.53599 8.42263 6.2038 8.68485 5.8107 9.00534C5.30671 9.41625 5.0992 9.59999 5.10692 9.62847C5.11291 9.6507 5.32023 10.1896 5.56757 10.8261C6.00917 11.9625 6.0173 11.9868 6.01831 12.1741C6.02008 12.5006 5.87177 12.7541 5.5858 12.9134C5.44537 12.9916 5.41242 12.9995 5.2225 13C5.06023 13.0004 4.98831 12.9885 4.90007 12.9463C4.75665 12.8777 4.59789 12.7302 4.52302 12.5959C4.49117 12.5388 4.20759 11.8282 3.89282 11.0169C3.37035 9.67013 3.31971 9.52623 3.31104 9.36368C3.29917 9.14106 3.36824 8.93237 3.50444 8.77944C3.55594 8.72163 3.96317 8.37733 4.4094 8.01436C4.85565 7.65137 5.22115 7.34461 5.22162 7.33266C5.2224 7.31312 4.91481 6.76248 4.31934 5.71743L4.11119 5.35212L3.72451 5.96134C3.30045 6.62938 3.21521 6.72341 2.96563 6.79852C2.78763 6.85208 2.54479 6.83466 2.39674 6.75775C2.33593 6.72613 1.84397 6.44687 1.30352 6.13716C0.264128 5.54153 0.171468 5.47481 0.0611401 5.24273C0.010006 5.13522 0.0010376 5.07995 0.00130749 4.8746C0.00155354 4.67235 0.0107431 4.61517 0.0576506 4.52374C0.188643 4.26838 0.435516 4.08584 0.700941 4.04805C0.911595 4.01806 1.06537 4.08142 1.77778 4.49179C2.14328 4.70234 2.45142 4.87409 2.46252 4.87348C2.47365 4.87287 2.66807 4.57697 2.89457 4.21594L3.30637 3.55951L3.51019 3.54329C4.24368 3.48492 4.92206 3.03237 5.23467 2.39281L5.30207 2.25491L6.69359 2.2575C7.45893 2.25895 8.11898 2.26852 8.16036 2.27877Z" fill="#FFE664"></path></svg>